<svg width="20" height="20" viewBox="0 0 20 20" fill="none" xmlns="http://www.w3.org/2000/svg">
<path d="M18.1706 8.36794H17.4993V8.33335H9.99935V11.6667H14.7089C14.0218 13.6071 12.1756 15 9.99935 15C7.2381 15 4.99935 12.7613 4.99935 10C4.99935 7.23877 7.2381 5.00002 9.99935 5.00002C11.2739 5.00002 12.4335 5.48085 13.3164 6.26627L15.6735 3.90919C14.1852 2.5221 12.1943 1.66669 9.99935 1.66669C5.39727 1.66669 1.66602 5.39794 1.66602 10C1.66602 14.6021 5.39727 18.3334 9.99935 18.3334C14.6014 18.3334 18.3327 14.6021 18.3327 10C18.3327 9.44127 18.2752 8.89585 18.1706 8.36794Z" fill="#FFC107"/>
<path d="M2.62695 6.12127L5.36487 8.12919C6.1057 6.29502 7.89987 5.00002 9.99945 5.00002C11.274 5.00002 12.4336 5.48085 13.3165 6.26627L15.6736 3.90919C14.1853 2.5221 12.1945 1.66669 9.99945 1.66669C6.79862 1.66669 4.02279 3.47377 2.62695 6.12127Z" fill="#FF3D00"/>
<path d="M10.0008 18.3333C12.1533 18.3333 14.1091 17.5096 15.5879 16.17L13.0087 13.9875C12.172 14.6212 11.132 15 10.0008 15C7.83328 15 5.99286 13.6179 5.29953 11.6891L2.58203 13.7829C3.9612 16.4816 6.76203 18.3333 10.0008 18.3333Z" fill="#4CAF50"/>
<path d="M18.1712 8.3679H17.5V8.33331H10V11.6666H14.7096C14.3796 12.5987 13.78 13.4025 13.0067 13.9879L13.0079 13.9871L15.5871 16.1696C15.4046 16.3354 18.3333 14.1666 18.3333 9.99998C18.3333 9.44123 18.2758 8.89581 18.1712 8.3679Z" fill="#1976D2"/>
</svg>
